<!DOCTYPE svg PUBLIC "-//W3C//DTD SVG 1.1//EN" "http://www.w3.org/Graphics/SVG/1.1/DTD/svg11.dtd">
<svg xmlns="http://www.w3.org/2000/svg" style="background-color: rgb(255, 255, 255);" xmlns:xlink="http://www.w3.org/1999/xlink" version="1.1" width="539px" height="359px" viewBox="-0.5 -0.5 539 359"><defs/><g><rect x="121" y="0.5" width="200" height="60" rx="9" ry="9" fill="#000000" stroke="none" transform="translate(2,3)" opacity="0.25"/><rect x="121" y="0.5" width="200" height="60" rx="9" ry="9" fill="#10739e" stroke="none" pointer-events="none"/><g fill="#FFFFFF" font-family="Helvetica" font-weight="bold" text-anchor="middle" font-size="14px"><text x="220.5" y="26.5">Auftragsgeber</text><text x="220.5" y="43.5">Severin Räz</text></g><rect x="0" y="295" width="200" height="60" rx="9" ry="9" fill="#000000" stroke="none" transform="translate(2,3)" opacity="0.25"/><rect x="0" y="295" width="200" height="60" rx="9" ry="9" fill="#10739e" stroke="none" pointer-events="none"/><g fill="#FFFFFF" font-family="Helvetica" font-weight="bold" text-anchor="middle" font-size="14px"><text x="99.5" y="321">Ausführung</text><text x="99.5" y="338">Damian Senn</text></g><path d="M 221 61 L 221 245 Q 221 255 211 255 L 110 255 Q 100 255 100 265 L 100 280.53" fill="none" stroke="#23445d" stroke-width="4" stroke-miterlimit="10" pointer-events="none"/><path d="M 100 290.53 L 95 280.53 L 105 280.53 Z" fill="#23445d" stroke="#23445d" stroke-width="4" stroke-miterlimit="10" pointer-events="none"/><path d="M 221 61 L 221 106 Q 221 116 231 116 L 321.53 116" fill="none" stroke="#23445d" stroke-width="4" stroke-miterlimit="10" stroke-dasharray="12 12" pointer-events="none"/><path d="M 331.53 116 L 321.53 121 L 321.53 111 Z" fill="#23445d" stroke="#23445d" stroke-width="4" stroke-miterlimit="10" pointer-events="none"/><rect x="336" y="71" width="200" height="90" rx="13.5" ry="13.5" fill="#000000" stroke="none" transform="translate(2,3)" opacity="0.25"/><rect x="336" y="71" width="200" height="90" rx="13.5" ry="13.5" fill="#10739e" stroke="none" pointer-events="none"/><g fill="#FFFFFF" font-family="Helvetica" font-weight="bold" text-anchor="middle" font-size="14px"><text x="435.5" y="103.5">Experten</text><text x="435.5" y="120.5">Severin Räz</text><text x="435.5" y="137.5">Sandro Bertolino</text></g><rect x="240" y="295" width="200" height="60" rx="9" ry="9" fill="#000000" stroke="none" transform="translate(2,3)" opacity="0.25"/><rect x="240" y="295" width="200" height="60" rx="9" ry="9" fill="#10739e" stroke="none" pointer-events="none"/><g fill="#FFFFFF" font-family="Helvetica" font-weight="bold" text-anchor="middle" font-size="14px"><text x="339.5" y="321">Unterstützung Design</text><text x="339.5" y="338">Joshua Schär</text></g><path d="M 221 61 L 221 245 Q 221 255 231 255 L 330 255 Q 340 255 340 265 L 340 280.53" fill="none" stroke="#23445d" stroke-width="4" stroke-miterlimit="10" pointer-events="none"/><path d="M 340 290.53 L 335 280.53 L 345 280.53 Z" fill="#23445d" stroke="#23445d" stroke-width="4" stroke-miterlimit="10" pointer-events="none"/><rect x="120" y="165" width="200" height="60" rx="9" ry="9" fill="#000000" stroke="none" transform="translate(2,3)" opacity="0.25"/><rect x="120" y="165" width="200" height="60" rx="9" ry="9" fill="#10739e" stroke="none" pointer-events="none"/><g fill="#FFFFFF" font-family="Helvetica" font-weight="bold" text-anchor="middle" font-size="14px"><text x="219.5" y="191">Projektleitung</text><text x="219.5" y="208">Damian Senn</text></g></g></svg>
