<!DOCTYPE svg PUBLIC "-//W3C//DTD SVG 1.1//EN" "http://www.w3.org/Graphics/SVG/1.1/DTD/svg11.dtd">
<svg xmlns="http://www.w3.org/2000/svg" xmlns:xlink="http://www.w3.org/1999/xlink" version="1.1" width="539px" height="299px" viewBox="-0.5 -0.5 539 299"><defs/><g><rect x="121" y="0.5" width="200" height="60" rx="9" ry="9" fill="#000000" stroke="none" transform="translate(2,3)" opacity="0.25"/><rect x="121" y="0.5" width="200" height="60" rx="9" ry="9" fill="#10739e" stroke="none" pointer-events="none"/><g fill="#FFFFFF" font-family="Helvetica" font-weight="bold" text-anchor="middle" font-size="14px"><text x="220.5" y="26.5">Auftragsgeber</text><text x="220.5" y="43.5">Damian Senn</text></g><rect x="0" y="235" width="200" height="60" rx="9" ry="9" fill="#000000" stroke="none" transform="translate(2,3)" opacity="0.25"/><rect x="0" y="235" width="200" height="60" rx="9" ry="9" fill="#10739e" stroke="none" pointer-events="none"/><g fill="#FFFFFF" font-family="Helvetica" font-weight="bold" text-anchor="middle" font-size="14px"><text x="99.5" y="261">Ausf체hrung</text><text x="99.5" y="278">Damian Senn</text></g><path d="M 221 61 L 221 185 Q 221 195 211 195 L 110 195 Q 100 195 100 205 L 100 220.53" fill="none" stroke="#23445d" stroke-width="4" stroke-miterlimit="10" pointer-events="none"/><path d="M 100 230.53 L 95 220.53 L 105 220.53 Z" fill="#23445d" stroke="#23445d" stroke-width="4" stroke-miterlimit="10" pointer-events="none"/><path d="M 221 61 L 221 110 Q 221 120 231 120 L 321.53 120" fill="none" stroke="#23445d" stroke-width="4" stroke-miterlimit="10" stroke-dasharray="12 12" pointer-events="none"/><path d="M 331.53 120 L 321.53 125 L 321.53 115 Z" fill="#23445d" stroke="#23445d" stroke-width="4" stroke-miterlimit="10" pointer-events="none"/><rect x="336" y="75" width="200" height="90" rx="13.5" ry="13.5" fill="#000000" stroke="none" transform="translate(2,3)" opacity="0.25"/><rect x="336" y="75" width="200" height="90" rx="13.5" ry="13.5" fill="#10739e" stroke="none" pointer-events="none"/><g fill="#FFFFFF" font-family="Helvetica" font-weight="bold" text-anchor="middle" font-size="14px"><text x="435.5" y="107.5">Experten</text><text x="435.5" y="124.5">Severin R채z</text><text x="435.5" y="141.5">Sandro Bertolino</text></g><rect x="240" y="235" width="200" height="60" rx="9" ry="9" fill="#000000" stroke="none" transform="translate(2,3)" opacity="0.25"/><rect x="240" y="235" width="200" height="60" rx="9" ry="9" fill="#10739e" stroke="none" pointer-events="none"/><g fill="#FFFFFF" font-family="Helvetica" font-weight="bold" text-anchor="middle" font-size="14px"><text x="339.5" y="261">Unterst체tzung Design</text><text x="339.5" y="278">Joshua Sch채r</text></g><path d="M 221 61 L 221 185 Q 221 195 231 195 L 330 195 Q 340 195 340 205 L 340 220.53" fill="none" stroke="#23445d" stroke-width="4" stroke-miterlimit="10" pointer-events="none"/><path d="M 340 230.53 L 335 220.53 L 345 220.53 Z" fill="#23445d" stroke="#23445d" stroke-width="4" stroke-miterlimit="10" pointer-events="none"/></g></svg>
